<?xml version="1.0" standalone="no"?>
<!DOCTYPE svg PUBLIC "-//W3C//DTD SVG 20010904//EN"
 "http://www.w3.org/TR/2001/REC-SVG-20010904/DTD/svg10.dtd">
<svg version="1.0" xmlns="http://www.w3.org/2000/svg"
 width="195.000000pt" height="156.000000pt" viewBox="0 0 195.000000 156.000000"
 preserveAspectRatio="xMidYMid meet">
<g transform="translate(0.000000,156.000000) scale(0.100000,-0.100000)"
fill="#0000ff" stroke="none">
<path d="M812 1435 c-46 -56 -72 -114 -84 -189 -12 -69 -22 -82 -32 -41 -10
41 -58 113 -83 124 -33 15 -68 -4 -103 -57 -40 -60 -39 -72 8 -72 39 0 122
-33 122 -48 0 -5 -25 -7 -55 -4 -93 8 -174 -38 -250 -140 l-27 -38 59 0 c54 0
62 3 93 35 19 19 37 35 42 35 4 0 -9 -31 -28 -68 -27 -51 -37 -86 -41 -134 -9
-103 3 -108 65 -33 48 59 52 68 52 117 l1 53 19 -35 c11 -19 20 -30 20 -25 0
6 16 28 35 50 l34 40 -6 -78 c-5 -72 -4 -81 25 -139 17 -35 47 -79 66 -97 l36
-35 0 59 c0 47 -5 65 -25 91 -30 40 -31 47 -5 39 19 -6 20 -2 20 69 0 41 4 77
8 80 13 8 72 -98 108 -192 35 -95 62 -221 66 -321 l3 -64 -38 -1 c-20 0 -38 3
-40 7 -1 5 -61 11 -132 14 -103 4 -143 2 -195 -11 -36 -9 -66 -21 -68 -26 -2
-5 -10 -6 -19 -3 -12 5 -14 3 -8 -7 5 -8 4 -11 -2 -7 -13 8 -73 -21 -73 -34 0
-6 -4 -7 -10 -4 -5 3 -10 2 -10 -3 0 -5 -14 -15 -30 -22 -53 -22 -43 -29 13
-10 122 43 264 48 432 14 39 -7 79 -15 90 -17 11 -1 25 -5 30 -9 21 -12 198
-49 212 -44 8 3 11 1 8 -4 -3 -6 -3 -10 2 -10 4 0 35 -5 68 -10 82 -14 240
-14 311 0 71 14 244 98 299 146 l40 34 -40 -14 c-68 -23 -95 -38 -88 -49 3 -6
1 -7 -5 -3 -6 3 -21 2 -35 -3 -46 -18 -237 -41 -237 -29 0 4 -16 8 -35 8 -19
0 -97 16 -172 35 -75 20 -143 33 -150 31 -7 -3 -15 -1 -18 5 -4 5 -11 7 -16 4
-28 -18 16 185 59 273 41 81 55 102 71 102 10 0 12 -10 7 -45 -6 -37 -4 -45 8
-45 14 0 13 -5 -4 -37 -11 -21 -20 -48 -20 -62 0 -21 2 -22 17 -10 40 33 73
102 73 153 l0 51 24 -29 c22 -28 24 -29 34 -10 10 16 11 13 12 -21 1 -47 53
-128 64 -99 10 27 7 63 -13 119 -11 30 -18 55 -16 55 2 0 13 -9 23 -20 11 -12
37 -24 58 -27 l38 -6 -21 34 c-12 19 -38 48 -58 64 -30 25 -46 30 -86 29 -27
0 -49 1 -49 3 0 8 63 33 85 33 30 0 32 13 4 51 -13 18 -29 29 -44 29 -24 0
-59 -35 -70 -71 -10 -29 -25 -12 -25 27 0 37 -19 90 -45 127 -15 21 -16 17
-12 -60 3 -46 3 -83 1 -83 -3 0 -18 10 -35 22 -32 24 -159 40 -159 20 0 -14
57 -48 95 -57 l30 -7 -40 -19 c-44 -21 -78 -56 -69 -70 9 -16 77 -10 97 9 19
16 20 16 14 0 -5 -14 1 -17 30 -20 l36 -3 -25 -30 c-29 -35 -92 -157 -102
-199 -4 -15 -9 -26 -12 -23 -3 3 -17 49 -30 102 -31 123 -73 227 -124 311 -22
37 -39 68 -37 70 2 2 24 0 50 -5 l46 -8 -5 31 -5 31 29 -32 c25 -29 34 -33 78
-32 27 0 57 3 66 7 16 6 15 10 -5 47 -17 29 -39 48 -84 71 -61 32 -69 44 -28
44 37 0 110 30 145 58 l33 28 -69 13 c-100 17 -176 -1 -236 -57 -33 -30 -34
-26 -11 40 16 42 16 50 3 58 -12 8 -12 12 3 28 14 15 17 33 15 73 l-3 54 -33
-40z m118 -1125 c8 -5 11 -10 5 -10 -5 0 -17 5 -25 10 -8 5 -10 10 -5 10 6 0
17 -5 25 -10z"/>
</g>
</svg>
