<?xml version="1.0" standalone="no"?>
<!DOCTYPE svg PUBLIC "-//W3C//DTD SVG 20010904//EN"
 "http://www.w3.org/TR/2001/REC-SVG-20010904/DTD/svg10.dtd">
<svg version="1.0" xmlns="http://www.w3.org/2000/svg"
 width="155.000000pt" height="127.000000pt" viewBox="0 0 155.000000 127.000000"
 preserveAspectRatio="xMidYMid meet">

<g transform="translate(0.000000,127.000000) scale(0.100000,-0.100000)"
fill="#000000" stroke="none">
<path d="M435 1221 c-15 -6 -11 -9 21 -14 23 -4 59 -15 80 -24 l39 -18 -39 -3
-38 -3 28 -30 c15 -16 37 -29 49 -29 25 0 86 -39 93 -58 3 -11 -1 -11 -19 1
-13 8 -35 18 -49 22 -20 6 -23 5 -12 -6 28 -30 14 -39 -64 -39 -82 0 -162 -29
-200 -71 -19 -21 -19 -22 4 -15 29 10 28 -5 -4 -33 -25 -22 -74 -113 -74 -139
0 -9 9 -7 29 7 16 12 38 21 50 21 14 0 27 14 44 48 21 43 75 92 100 92 6 0 1
-10 -10 -22 -11 -13 -26 -33 -32 -45 l-12 -23 35 21 c20 11 43 18 53 15 13 -4
23 4 38 31 23 42 47 56 38 22 -5 -19 -4 -20 15 -10 11 6 29 11 39 11 13 0 6
-11 -27 -42 -32 -31 -41 -44 -29 -46 12 -2 8 -11 -17 -37 -35 -37 -54 -93 -35
-104 8 -6 8 -16 0 -40 -17 -49 -6 -122 27 -177 l28 -49 7 48 c4 27 10 51 13
54 3 3 -1 15 -9 27 -8 11 -15 39 -14 61 l1 40 14 -32 c20 -46 34 -50 34 -11 0
19 6 43 14 53 12 17 12 23 0 47 -16 31 -19 78 -4 78 6 0 10 -6 10 -12 0 -7 9
-24 18 -36 l19 -24 -1 50 c-1 50 25 99 45 86 12 -7 11 -48 -1 -60 -8 -8 -7
-19 1 -38 10 -22 10 -32 1 -47 -10 -16 -10 -27 -1 -54 10 -27 10 -37 0 -49
-10 -12 -10 -22 0 -50 10 -28 10 -38 0 -50 -10 -12 -10 -22 0 -51 11 -31 11
-37 -1 -45 -12 -8 -12 -14 -1 -46 11 -31 11 -38 -2 -51 -13 -14 -13 -19 0 -51
24 -57 4 -68 -147 -81 l-124 -12 -54 38 c-88 60 -160 171 -170 261 -6 53 10
54 45 2 18 -26 23 -29 24 -14 2 37 -3 59 -18 77 -15 16 -14 17 14 17 17 0 43
-10 58 -22 l27 -21 -7 24 c-11 35 -33 57 -66 64 -35 8 -36 17 -6 38 21 15 21
16 2 16 -11 1 -33 -6 -49 -14 -35 -19 -33 -19 -39 5 -7 27 -27 26 -27 -1 0
-19 -4 -21 -44 -15 -27 4 -47 3 -51 -4 -3 -5 0 -10 8 -10 8 0 20 -6 26 -14 10
-11 8 -16 -8 -21 -28 -9 -61 -53 -61 -82 l0 -25 25 30 c14 16 34 32 44 35 18
4 19 1 14 -42 -4 -36 -1 -50 11 -60 14 -12 16 -10 16 16 0 16 6 38 14 48 13
18 15 17 21 -20 17 -103 61 -183 143 -263 30 -29 53 -54 51 -55 -2 -2 -31 -10
-64 -17 -33 -8 -76 -20 -95 -27 l-35 -14 40 7 c67 11 185 20 185 13 0 -3 -18
-11 -41 -18 -51 -15 -45 -26 7 -12 22 6 82 13 134 17 101 7 111 -2 30 -26
l-45 -14 75 -8 c57 -6 86 -15 125 -39 38 -24 53 -29 65 -20 47 34 98 52 163
59 l72 8 -45 14 c-81 24 -70 33 34 25 54 -4 112 -11 129 -16 43 -12 46 -3 3
12 -20 7 -36 16 -36 19 0 7 143 -5 183 -15 15 -4 27 -5 27 -2 0 3 -37 15 -82
26 -46 12 -89 24 -96 27 -9 3 0 15 25 37 81 66 147 170 159 249 11 72 20 78
37 23 l15 -50 13 28 c10 22 10 35 2 57 -6 16 -8 31 -6 34 9 8 61 -22 72 -41
14 -26 25 -9 14 24 -5 15 -24 37 -41 49 -23 16 -28 24 -19 33 6 6 17 11 25 11
7 0 10 5 6 11 -4 7 -22 9 -49 5 -38 -6 -43 -5 -49 16 l-7 23 -15 -22 c-14 -19
-17 -20 -42 -7 -15 8 -36 14 -46 14 -18 0 -18 -1 3 -24 l23 -24 -31 -7 c-32
-7 -71 -47 -71 -72 0 -11 6 -9 26 6 15 12 37 21 50 21 28 0 28 1 8 -39 -12
-24 -13 -38 -6 -59 6 -15 11 -20 11 -11 1 20 39 69 53 69 18 0 1 -79 -31 -144
-32 -65 -90 -131 -152 -172 -35 -24 -37 -24 -160 -13 -98 8 -128 15 -143 30
-19 17 -19 20 -4 52 15 31 15 36 1 50 -13 13 -14 20 -4 45 10 24 10 34 0 49
-9 15 -9 28 -1 52 8 24 8 37 0 50 -8 13 -8 26 0 50 8 24 8 37 0 50 -8 13 -8
27 0 48 8 24 7 34 -4 45 -13 12 -13 19 0 49 13 30 13 36 -1 51 -12 13 -12 21
-3 38 11 21 13 21 28 6 10 -10 19 -41 23 -74 l5 -57 22 45 22 45 0 -45 c0 -25
-4 -52 -10 -60 -5 -9 -5 -19 0 -25 5 -7 13 -29 18 -51 l8 -39 22 35 22 35 0
-35 c0 -19 -6 -46 -13 -60 -10 -18 -11 -33 -4 -53 5 -15 7 -41 5 -57 -6 -37 5
-30 37 24 31 52 42 131 26 177 -8 24 -8 34 0 40 19 12 -1 68 -37 105 -27 27
-31 34 -17 34 13 1 4 14 -30 45 -46 42 -47 45 -24 45 14 0 29 -4 32 -10 11
-18 27 -10 22 11 -9 32 15 17 38 -24 13 -24 25 -35 35 -32 9 3 32 -3 53 -14
l36 -19 -11 22 c-6 11 -20 31 -31 44 -11 12 -17 22 -12 22 25 0 78 -51 98 -92
17 -36 27 -47 45 -48 13 0 37 -10 54 -21 l30 -22 -7 24 c-18 60 -39 97 -73
133 l-37 39 30 -7 30 -6 -34 30 c-46 40 -111 60 -193 60 -70 0 -84 10 -55 39
10 11 7 12 -13 6 -14 -4 -38 -14 -55 -23 l-30 -15 20 23 c24 27 67 50 93 50
10 0 31 13 46 29 l28 30 -38 3 -39 3 39 18 c21 9 57 20 80 24 32 5 36 8 21 14
-68 26 -161 1 -232 -64 -29 -27 -55 -48 -56 -46 -1 2 -9 23 -18 47 -8 24 -19
44 -24 44 -6 0 -18 -22 -28 -50 l-19 -50 -36 41 c-63 69 -176 105 -247 78z"/>
<path d="M484 389 c-3 -6 -17 -8 -33 -4 -26 7 -26 7 -6 -13 11 -11 20 -19 20
-18 0 0 9 11 19 24 11 12 16 22 13 22 -3 0 -9 -5 -13 -11z"/>
<path d="M1045 377 c12 -19 20 -24 25 -16 4 6 14 16 21 21 10 6 7 7 -9 3 -13
-4 -30 -1 -39 7 -13 10 -13 8 2 -15z"/>
</g>
</svg>
